<svg xmlns="http://www.w3.org/2000/svg" viewBox="0 0 60 85" width="60" height="85">
  <defs>
    <linearGradient id="sj-sky" x1="0%" y1="0%" x2="100%" y2="100%">
      <stop offset="0%" stop-color="#4a6b8c" />
      <stop offset="55%" stop-color="#2c3d52" />
      <stop offset="100%" stop-color="#1a2433" />
    </linearGradient>
    <pattern id="sj-grid" width="10" height="10" patternUnits="userSpaceOnUse">
      <path d="M0 5h10M5 0v10" stroke="rgba(255,255,255,0.06)" stroke-width="0.4" />
    </pattern>
    <radialGradient id="sj-moon" cx="50%" cy="35%" r="50%">
      <stop offset="0%" stop-color="rgba(200,220,255,0.35)" />
      <stop offset="100%" stop-color="rgba(200,220,255,0)" />
    </radialGradient>
  </defs>
  <rect width="60" height="85" fill="url(#sj-sky)" rx="5" />
  <rect width="60" height="85" fill="url(#sj-grid)" rx="5" />
  <ellipse cx="30" cy="28" rx="22" ry="16" fill="url(#sj-moon)" />
  <path fill="rgba(255,255,255,0.55)" transform="translate(8,14) scale(0.55)" d="M0 -3 L0.8 -0.8 L3 0 L0.8 0.8 L0 3 L-0.8 0.8 L-3 0 L-0.8 -0.8 Z" />
  <path fill="rgba(255,255,255,0.55)" transform="translate(52,14) scale(0.55)" d="M0 -3 L0.8 -0.8 L3 0 L0.8 0.8 L0 3 L-0.8 0.8 L-3 0 L-0.8 -0.8 Z" />
  <path fill="rgba(255,255,255,0.55)" transform="translate(8,72) scale(0.55)" d="M0 -3 L0.8 -0.8 L3 0 L0.8 0.8 L0 3 L-0.8 0.8 L-3 0 L-0.8 -0.8 Z" />
  <path fill="rgba(255,255,255,0.55)" transform="translate(52,72) scale(0.55)" d="M0 -3 L0.8 -0.8 L3 0 L0.8 0.8 L0 3 L-0.8 0.8 L-3 0 L-0.8 -0.8 Z" />
  <rect x="4" y="10" width="52" height="65" rx="3" fill="none" stroke="rgba(255,255,255,0.18)" stroke-width="0.6" />
  <path
    d="M14 58 Q22 38 30 36 Q38 38 46 58 L44 62 L16 62 Z"
    fill="rgba(240,245,255,0.92)"
    stroke="rgba(255,255,255,0.5)"
    stroke-width="0.4"
  />
  <circle cx="30" cy="34" r="4" fill="#fbbf24" stroke="#b45309" stroke-width="0.3" />
  <ellipse cx="30" cy="62" rx="14" ry="3" fill="rgba(0,0,0,0.2)" />
  <circle cx="22" cy="52" r="2.2" fill="#93c5fd" />
  <circle cx="38" cy="52" r="2.2" fill="#93c5fd" />
</svg>
